<svg xmlns="http://www.w3.org/2000/svg" xmlns:xlink="http://www.w3.org/1999/xlink" version="1.1" xml:space="preserve" viewBox="0 0 6 10" id="ui-social-fb"><path d="M5.163.133L3.976.131c-1.334 0-2.196.885-2.196 2.253v1.04H.586A.186.186 0 0 0 .4 3.61v1.505c0 .103.084.186.186.186H1.78V9.1c0 .103.084.187.187.187h1.557a.187.187 0 0 0 .187-.187V5.301h1.396a.187.187 0 0 0 .186-.186V3.61c0-.05-.02-.097-.054-.133a.186.186 0 0 0-.132-.054H3.711v-.88c0-.424.1-.639.652-.639h.8a.186.186 0 0 0 .186-.187V.32a.187.187 0 0 0-.186-.187z" fill="#232323"></path></svg>