<svg xmlns="http://www.w3.org/2000/svg" xmlns:xlink="http://www.w3.org/1999/xlink" version="1.1" xml:space="preserve" viewBox="0 0 13 21" id="ui-social-ok"><path d="M6.187 3.102c1.258 0 2.282.984 2.282 2.192 0 1.208-1.024 2.191-2.282 2.191s-2.283-.983-2.283-2.19c0-1.21 1.025-2.193 2.283-2.193zm0 7.484c3.04 0 5.512-2.374 5.512-5.292C11.7 2.374 9.227 0 6.187 0 3.147 0 .674 2.375.674 5.294c0 2.918 2.472 5.292 5.513 5.292zm2.23 4.318a10.554 10.554 0 0 0 3.201-1.273c.754-.456.982-1.414.506-2.138-.474-.726-1.47-.945-2.226-.488a7.245 7.245 0 0 1-7.423 0c-.755-.457-1.752-.238-2.226.488-.476.725-.249 1.682.505 2.138a10.57 10.57 0 0 0 3.202 1.273l-3.082 2.96a1.508 1.508 0 0 0 0 2.193c.316.302.729.454 1.142.454.413 0 .827-.152 1.143-.454l3.027-2.908 3.03 2.908c.63.606 1.652.606 2.283 0a1.506 1.506 0 0 0 0-2.193l-3.082-2.96z" fill="#232323"></path></svg>