<svg xmlns="http://www.w3.org/2000/svg" xmlns:xlink="http://www.w3.org/1999/xlink" version="1.1" xml:space="preserve" viewBox="0 0 20 16" id="ui-social-tw"><path d="M20 1.857a8.48 8.48 0 0 1-2.38.655c.85-.492 1.473-1.31 1.813-2.239-.793.437-1.643.82-2.606.983A4.174 4.174 0 0 0 13.824 0c-2.266 0-4.079 1.802-4.079 4.041 0 .328.057.6.113.928A11.646 11.646 0 0 1 1.416.765c-.34.6-.566 1.31-.566 2.02 0 1.42.736 2.621 1.813 3.331-.68 0-1.303-.218-1.87-.491v.054A3.988 3.988 0 0 0 4.08 9.611c-.34.11-.68.164-1.076.164-.283 0-.51 0-.793-.055a4.063 4.063 0 0 0 3.852 2.785 8.303 8.303 0 0 1-5.099 1.748c-.34 0-.68 0-.963-.055A11.707 11.707 0 0 0 6.289 16C13.824 16 17.96 9.884 17.96 4.532v-.546A9.268 9.268 0 0 0 20 1.856z" fill="#232323"></path></svg>