<svg xmlns="http://www.w3.org/2000/svg" xmlns:xlink="http://www.w3.org/1999/xlink" version="1.1" xml:space="preserve" viewBox="0 0 10 6" id="ui-social-vk"><path d="M9.947 5.153a.686.686 0 0 0-.034-.065c-.173-.313-.505-.696-.994-1.15l-.01-.011-.006-.005-.005-.006h-.005a6.107 6.107 0 0 1-.422-.427c-.108-.138-.132-.28-.073-.422.042-.107.198-.334.469-.682.142-.183.255-.331.338-.442.6-.799.86-1.309.78-1.531L9.956.36C9.935.33 9.88.3 9.794.274A.813.813 0 0 0 9.46.261l-1.5.01a.194.194 0 0 0-.103.003L7.789.29l-.026.013-.02.016a.226.226 0 0 0-.058.054.358.358 0 0 0-.052.091c-.163.42-.349.81-.557 1.172-.129.215-.247.402-.354.56a2.718 2.718 0 0 1-.27.348 1.872 1.872 0 0 1-.199.18c-.059.045-.104.064-.135.057a5.556 5.556 0 0 1-.089-.02.342.342 0 0 1-.117-.128.567.567 0 0 1-.06-.203 2.318 2.318 0 0 1-.015-.46l.005-.22c0-.132.003-.275.008-.43l.013-.366c.003-.09.005-.186.005-.287 0-.1-.006-.18-.018-.237a.803.803 0 0 0-.055-.166.28.28 0 0 0-.107-.125.598.598 0 0 0-.174-.07A3.49 3.49 0 0 0 4.811 0c-.646-.007-1.06.035-1.244.125a.698.698 0 0 0-.198.156c-.063.076-.071.118-.026.125.208.031.355.106.442.224l.032.062a.98.98 0 0 1 .072.24c.025.114.04.241.047.38.018.253.018.47 0 .65a7.51 7.51 0 0 1-.05.422.844.844 0 0 1-.132.36.09.09 0 0 1-.026.026.386.386 0 0 1-.14.026c-.05 0-.108-.024-.178-.073a1.248 1.248 0 0 1-.216-.2 2.677 2.677 0 0 1-.252-.357 6.238 6.238 0 0 1-.292-.542l-.083-.15a12.296 12.296 0 0 1-.214-.425 8.086 8.086 0 0 1-.239-.54.346.346 0 0 0-.125-.166L1.963.33A.555.555 0 0 0 1.76.25L.333.26C.188.261.09.294.037.36L.016.39A.17.17 0 0 0 0 .474C0 .513.01.56.031.615c.209.49.435.962.68 1.416.244.455.457.821.637 1.099.181.278.365.54.552.786.188.246.312.404.373.474.06.07.108.121.143.156l.13.125c.083.083.206.183.367.3.162.116.34.23.536.343.197.113.425.205.685.276.26.071.514.1.76.086h.6a.414.414 0 0 0 .275-.115l.02-.026a.53.53 0 0 0 .057-.24c-.002-.148.009-.283.035-.403.026-.12.055-.21.088-.27a.653.653 0 0 1 .201-.23.35.35 0 0 1 .041-.018c.084-.027.182 0 .295.081.112.082.218.182.317.302.1.12.218.255.357.404.139.149.26.26.364.333l.104.062c.07.042.16.08.271.115a.58.58 0 0 0 .292.026l1.333-.02a.603.603 0 0 0 .307-.066c.073-.043.116-.091.13-.143a.404.404 0 0 0 .003-.177.676.676 0 0 0-.037-.138z" fill="#232323"></path></svg>