<svg xmlns="http://www.w3.org/2000/svg" xmlns:xlink="http://www.w3.org/1999/xlink" version="1.1" xml:space="preserve" viewBox="0 0 16 12" id="ui-social-yb"><path clip-rule="evenodd" d="M14.251.746a2.04 2.04 0 0 1 1.415 1.465C16 3.504 16 6.2 16 6.2s0 2.696-.334 3.989a2.04 2.04 0 0 1-1.415 1.465C13.003 12 8 12 8 12s-5.003 0-6.251-.346a2.04 2.04 0 0 1-1.415-1.465C0 8.896 0 6.2 0 6.2s0-2.696.334-3.989A2.04 2.04 0 0 1 1.75.746C2.997.4 8 .4 8 .4s5.003 0 6.251.346zM10.5 6.452l-4-2.522v5.044z" fill="#232323" fill-rule="evenodd"></path></svg>